# xmcd
# 
# Track frame offsets:
#     150
#     23679
#     48693
#     96365
#     168799
#     228060
#     289085
# 
# Disc length: 4182
# 
# Revision: 0
# Processed by: cddbd v1.5.2PL0 Copyright (c) Steve Scherf et al.
# Submitted via: BonkEnc v1.0.8
# 
DISCID=51105407
DTITLE=Brandt - Zidane und ich
DYEAR=0
DGENRE=Hörbuch
TTITLE0=Liebe Nanon
TTITLE1=Warum habe ich
TTITLE2=Dieser gerade begonnene Sommer
TTITLE3=Philippe
TTITLE4=Ich habe Dir
TTITLE5=Also los
TTITLE6=Liebe Nanon
EXTD=
EXTT0=
EXTT1=
EXTT2=
EXTT3=
EXTT4=
EXTT5=
EXTT6=
PLAYORDER=
